<svg width="524" height="524" viewBox="0 0 524 524" fill="none" xmlns="http://www.w3.org/2000/svg">
<path fill-rule="evenodd" clip-rule="evenodd" d="M0.541016 157.741C0.541016 71.129 70.754 0.916016 157.366 0.916016C197.532 0.916016 234.171 16.0158 261.916 40.8485C289.661 16.0158 326.3 0.916016 366.466 0.916016C453.078 0.916016 523.291 71.129 523.291 157.741C523.291 197.907 508.191 234.546 483.359 262.291C508.191 290.036 523.291 326.675 523.291 366.841C523.291 453.453 453.078 523.666 366.466 523.666C326.3 523.666 289.661 508.566 261.916 483.733C234.171 508.566 197.532 523.666 157.366 523.666C70.754 523.666 0.541016 453.453 0.541016 366.841C0.541016 326.675 15.6408 290.036 40.4734 262.291C15.6408 234.546 0.541016 197.907 0.541016 157.741Z" fill="#F9DD71"/>
</svg>
