<svg width="24" height="24" viewBox="0 0 24 24" fill="none" xmlns="http://www.w3.org/2000/svg">
<g id="icon_my">
<path id="Exclude" fill-rule="evenodd" clip-rule="evenodd" d="M12.0003 23.9587C18.6047 23.9587 23.9587 18.6047 23.9587 12.0003C23.9587 5.39592 18.6047 0.0419922 12.0003 0.0419922C5.39592 0.0419922 0.0419922 5.39592 0.0419922 12.0003C0.0419922 18.6047 5.39592 23.9587 12.0003 23.9587ZM8.77732 9.1954C8.77732 9.95877 8.16049 10.5756 7.39712 10.5756C6.63375 10.5756 6.02032 9.95536 6.02032 9.1954C6.02032 8.43203 6.63375 7.8152 7.39712 7.8152C8.15708 7.8152 8.77732 8.43203 8.77732 9.1954ZM17.9797 9.1954C17.9797 9.95877 17.3629 10.5756 16.5995 10.5756C15.8361 10.5756 15.2193 9.95536 15.2193 9.1954C15.2193 8.43203 15.8361 7.8152 16.5995 7.8152C17.3629 7.8152 17.9797 8.43203 17.9797 9.1954ZM6.07858 13.7239C6.51716 13.5501 7.01355 13.7648 7.1873 14.2034C7.97507 16.1918 9.8585 17.4705 11.9924 17.4705C14.1257 17.4705 16.0097 16.1889 16.7976 14.203C16.9716 13.7645 17.4681 13.5501 17.9066 13.724C18.3451 13.898 18.5595 14.3945 18.3855 14.833C17.34 17.4681 14.8278 19.1788 11.9924 19.1788C9.15754 19.1788 6.64475 17.4721 5.59907 14.8326C5.42532 14.394 5.64 13.8976 6.07858 13.7239Z" fill="white"/>
</g>
</svg>
